<?xml version="1.0" encoding="UTF-8"?>
<svg width="100" height="24" viewBox="0 0 100 24" fill="none" xmlns="http://www.w3.org/2000/svg">
  <text x="0" y="16" font-family="Arial" font-size="12" fill="#5F6368">Powered by</text>
  <path d="M60.64 12.2h6.356v.68h-5.616v.002l5.616 2.284v.678L60.64 13.56v-.68l5.616-2.284v.002H60.64v-.68z" fill="#5F6368"/>
  <path d="M68.88 9.32h1.68l3.96 6.36h.12l3.96-6.36h1.68v9.36h-1.44v-6.84h-.12l-3.72 6.84h-.84l-3.72-6.84h-.12v6.84h-1.44V9.32z" fill="#4285F4"/>
  <path d="M82.56 15.32c0-2.04 1.56-3.24 3.48-3.24s3.48 1.2 3.48 3.24-1.56 3.24-3.48 3.24-3.48-1.2-3.48-3.24zm5.4 0c0-1.44-.96-2.04-1.92-2.04s-1.92.6-1.92 2.04.96 2.04 1.92 2.04 1.92-.6 1.92-2.04z" fill="#EA4335"/>
  <path d="M90.96 18.44V9.32h1.44v9.12h-1.44zm2.88-6.24h1.44v6.24h-1.44v-6.24z" fill="#FBBC05"/>
  <path d="M96.72 18.44V9.32h1.44v9.12h-1.44z" fill="#34A853"/>
</svg> 