<?xml version="1.0" encoding="UTF-8"?>
<svg width="800px" height="600px" viewBox="0 0 800 600" version="1.1" xmlns="http://www.w3.org/2000/svg">
    <g stroke="none" stroke-width="1" fill="none" fill-rule="evenodd">
        <g transform="translate(100, 100)">
            <!-- Team members group -->
            <g transform="translate(0, 0)">
                <!-- Person 1 -->
                <circle fill="#FF6B6B" cx="100" cy="100" r="50"/>
                <path d="M80,140 C80,180 120,180 120,140" stroke="#FFF" stroke-width="3"/>
                
                <!-- Person 2 -->
                <circle fill="#4ECDC4" cx="300" cy="100" r="50"/>
                <path d="M280,140 C280,180 320,180 320,140" stroke="#FFF" stroke-width="3"/>
                
                <!-- Person 3 -->
                <circle fill="#45B7D1" cx="500" cy="100" r="50"/>
                <path d="M480,140 C480,180 520,180 520,140" stroke="#FFF" stroke-width="3"/>
                
                <!-- Thumbs up icons -->
                <g transform="translate(150, 250)">
                    <path d="M20,0 L40,0 L40,60 L20,60 Z" fill="#FFD93D"/>
                    <path d="M40,30 C40,30 60,30 80,30 C100,30 100,0 80,0 L40,0" fill="#FFD93D"/>
                </g>
                
                <g transform="translate(350, 250)">
                    <path d="M20,0 L40,0 L40,60 L20,60 Z" fill="#FFD93D"/>
                    <path d="M40,30 C40,30 60,30 80,30 C100,30 100,0 80,0 L40,0" fill="#FFD93D"/>
                </g>
            </g>
            
            <!-- Connection lines -->
            <path d="M150,100 L250,100" stroke="#6C757D" stroke-width="2" stroke-dasharray="5,5"/>
            <path d="M350,100 L450,100" stroke="#6C757D" stroke-width="2" stroke-dasharray="5,5"/>
        </g>
    </g>
</svg> 