<?xml version="1.0" encoding="UTF-8"?>
<svg width="32" height="32" viewBox="0 0 32 32" fill="none" xmlns="http://www.w3.org/2000/svg">
  <rect width="32" height="32" rx="8" fill="#E8590C"/>
  <g transform="translate(8.5, 5.5)">
    <path d="M14 9.5C14 8.7 13.3 8 12.5 8H10V3.5C10 2.7 9.3 2 8.5 2C7.7 2 7 2.7 7 3.5V4.5L5.4 7.8C5.1 8.3 4.6 8.7 4 8.9V17H12.5C13.3 17 14 16.3 14 15.5L15 10.5C15 10.2 14.8 9.8 14 9.5Z" fill="white"/>
    <path d="M2 9H4V17H2C1.4 17 1 16.6 1 16V10C1 9.4 1.4 9 2 9Z" fill="white"/>
  </g>
</svg>